<?xml version="1.0" encoding="UTF-8"?>
<svg id="a" data-name="Layer 1" xmlns="http://www.w3.org/2000/svg" width="37.1489mm" height="9.1794mm" viewBox="0 0 105.3039 26.0204">
  <g isolation="isolate">
    <g isolation="isolate">
      <path d="M40.9608,4.4604h7.7393c2.169,0,7.0369.4828,7.0369,5.436,0,5.0422-4.9768,5.6357-6.8627,5.6357h-4.494v6.0277h-3.4195V4.4604ZM48.1302,12.374c1.8404,0,4.033-.3503,4.033-2.4775,0-2.0601-2.2361-2.4322-4.033-2.4322h-3.7499v4.9097h3.7499Z" fill="#231f20"/>
      <path d="M59.9752,3.6709c1.1616,0,2.0601.8549,2.0601,1.864,0,1.0963-.8984,1.9512-2.0601,1.9512-1.1834,0-2.0818-.8549-2.0818-1.9512,0-1.0092.8984-1.864,2.0818-1.864ZM58.3525,9.3266h3.2017v12.2334h-3.2017v-12.2334Z" fill="#231f20"/>
      <path d="M63.7051,9.3266h3.4849c1.403,2.9821,2.4775,5.5468,3.7916,8.616h.0672c1.3812-3.2435,2.4539-5.7882,3.7698-8.616h3.3978l-5.3054,12.2334h-3.857l-5.3489-12.2334Z" fill="#231f20"/>
      <path d="M79.122,15.465c0-3.7916,3.091-6.4888,7.4979-6.4888s7.4979,2.6971,7.4979,6.4888c0,3.8152-3.091,6.467-7.4979,6.467s-7.4979-2.6518-7.4979-6.467ZM86.6199,18.9953c2.4557,0,4.1437-1.4684,4.1437-3.5303,0-2.1036-1.688-3.5502-4.1437-3.5502-2.434,0-4.1655,1.4684-4.1655,3.5502,0,2.0619,1.7315,3.5303,4.1655,3.5303Z" fill="#231f20"/>
      <path d="M98.0039,17.6576v-5.5468h-2.8932v-2.7843h2.8932v-3.4631h3.2017v3.4631h4.0984v2.7843h-4.0984v4.4505c0,1.1616,0,2.5864,2.0165,2.5864.6788,0,1.4248-.1742,2.0818-.4374v2.7625c-.7442.3285-1.7315.4592-2.7189.4592-4.5812,0-4.5812-3.0021-4.5812-4.2744Z" fill="#231f20"/>
    </g>
  </g>
  <path d="M26.0205,11.1516c0-1.1152-.3717-2.2303-.7434-3.1596l-6.8768,1.8586,5.0182-5.0182c-.7434-.9293-1.4869-1.6727-2.2303-2.2303l-5.0182,5.0182,1.8586-6.8768c-.9293-.3717-2.0445-.7434-3.1596-.7434l-1.8586,6.8768-1.8586-6.8768c-1.1152,0-2.2303.3717-3.1596.7434l1.8586,6.8768L4.8324,2.602c-.9293.7434-1.6727,1.4869-2.2303,2.2303l5.0182,5.0182L.7434,7.992c-.3717.9293-.7434,2.0445-.7434,3.1596l6.8768,1.8586-6.8768,1.8586c0,1.1152.3717,2.2303.7434,3.1596l6.8768-1.8586-5.0182,5.0182c.7434.9293,1.4869,1.6727,2.2303,2.2303l5.0182-5.0182-1.8586,6.8768c.9293.3717,2.0445.7434,3.1596.7434l1.8586-6.8768,1.8586,6.8768c1.1152,0,2.2303-.3717,3.1596-.7434l-1.8586-6.8768,5.0182,5.0182c.9293-.7434,1.6727-1.4869,2.2303-2.2303l-5.0182-5.0182,6.8768,1.8586c.3717-.9293.7434-2.0445.7434-3.1596l-6.8768-1.8586,6.8768-1.8586ZM12.8244,15.984c-1.6727,0-2.9738-1.301-2.9738-2.9738s1.301-2.9738,2.9738-2.9738,2.9738,1.301,2.9738,2.9738-1.301,2.9738-2.9738,2.9738Z" fill="#231f20"/>
</svg>